Coordinates
version=1
nRows=5
nColumns=63
inDegrees=yes

Units are S.I. units (second, meters, Newtons, ...)
If the header above contains a line with 'inDegrees', this indicates whether rotational values are in degrees (yes) or radians (no).

endheader
time	pelvis_tilt	pelvis_list	pelvis_rotation	pelvis_tx	pelvis_ty	pelvis_tz	hip_flexion_r	hip_adduction_r	hip_rotation_r	knee_angle_r	knee_angle_r_beta	ankle_angle_r	subtalar_angle_r	mtp_angle_r	hip_flexion_l	hip_adduction_l	hip_rotation_l	knee_angle_l	knee_angle_l_beta	ankle_angle_l	subtalar_angle_l	mtp_angle_l	L5_S1_Flex_Ext	L5_S1_Lat_Bending	L5_S1_axial_rotation	L4_L5_Flex_Ext	L4_L5_Lat_Bending	L4_L5_axial_rotation	L3_L4_Flex_Ext	L3_L4_Lat_Bending	L3_L4_axial_rotation	L2_L3_Flex_Ext	L2_L3_Lat_Bending	L2_L3_axial_rotation	L1_L2_Flex_Ext	L1_L2_Lat_Bending	L1_L2_axial_rotation	L1_T12_Flex_Ext	L1_T12_Lat_Bending	L1_T12_axial_rotation	Abs_r3	Abs_r2	Abs_r1	Abs_t1	Abs_t2	neck_flexion	neck_bending	neck_rotation	arm_flex_r	arm_add_r	arm_rot_r	elbow_flex_r	pro_sup_r	wrist_flex_r	wrist_dev_r	arm_flex_l	arm_add_l	arm_rot_l	elbow_flex_l	pro_sup_l	wrist_flex_l	wrist_dev_l
      2.27500000	     -6.86063702	     -6.23165531	     98.41682334	      0.17818255	      0.95853785	      0.61555852	     -0.72000552	     -2.93167796	     -9.66632538	      9.42616792	      0.16451767	     27.02582583	     -2.29409572	      0.00000000	      0.54900750	      2.69927180	      0.82545812	      8.20251609	      0.14316091	     26.72253741	     15.66513599	      0.00000000	     -0.16494644	     -0.22313220	     -1.32093338	     -0.30632202	     -0.29676582	     -1.40349171	     -0.27099050	     -0.54252362	     -1.40349171	     -0.18851728	     -0.54252362	     -1.15581670	     -0.15316926	     -0.45501117	     -1.07325837	     -0.09425039	     -0.34563177	     -0.99070003	     -1.17819589	     -2.52411602	     -7.34663516	      0.00000000	      0.00000000	     17.67845330	      1.61826012	     -3.01313822	     14.51509114	     -7.09153475	     59.79972769	     37.51517189	     88.46716430	     10.68442256	     16.46267634	     26.25099172	     -5.06247201	     84.12937617	     33.80572530	     89.29553250	     21.70200834	     17.98110776
      2.30000000	     -6.67538726	     -6.23211814	     98.86935550	      0.17728136	      0.95906623	      0.61635250	     -0.75055268	     -2.75400333	     -9.97856757	      9.39751595	      0.16401759	     27.23746039	     -2.25265349	      0.00000000	      0.74764976	      2.53137655	      1.10258705	      8.40801798	      0.14674760	     26.86252403	     15.82759867	      0.00000000	     -0.17425160	     -0.19662607	     -1.24658976	     -0.32360265	     -0.26151267	     -1.32450162	     -0.28627796	     -0.47807662	     -1.32450162	     -0.19915216	     -0.47807662	     -1.09076604	     -0.16181004	     -0.40095988	     -1.01285418	     -0.09956737	     -0.30457378	     -0.93494232	     -1.24466177	     -2.22427340	     -6.93315825	      0.00000000	      0.00000000	     17.87207218	      1.52852971	     -3.34747144	     13.70708456	     -7.36659907	     57.23575275	     37.79434900	     88.38006856	     11.05465093	     17.09332154	     28.12669102	     -3.62920653	     91.10488764	     32.14124853	     89.31637361	     19.37203993	     13.79970006
      2.32500000	     -5.16670323	     -6.32975916	     98.79525608	      0.17199435	      0.96179764	      0.61715702	     -0.54224668	     -1.64446316	    -11.13496514	      9.06605712	      0.15823255	     26.49883130	     -0.18506334	      0.00000000	      1.06374056	      1.37484680	      1.27578587	      8.32286615	      0.14526142	     26.64817315	     15.30424500	      0.00000000	     -0.12571280	      0.07569576	     -0.94849042	     -0.23346124	      0.10067537	     -1.00777108	     -0.20653356	      0.18404668	     -1.00777108	     -0.14367716	      0.18404668	     -0.82992912	     -0.11673691	      0.15435880	     -0.77064847	     -0.07183229	      0.11725274	     -0.71136782	     -0.89795396	      0.85628561	     -5.27521920	      0.00000000	      0.00000000	     17.37624728	     -0.11534340	     -3.27573649	     12.47671636	     -9.64447876	     54.10593019	     38.92321568	     88.23139040	     11.84259722	     18.00489268	     26.33792833	     11.20116618	    197.31781747	      0.27452275	     41.14512409	     -3.24710642	    -23.77188041
      2.35000000	     -5.24043547	     -6.40666014	     98.98303053	      0.17210931	      0.96182384	      0.61718125	     -0.61040989	     -1.68671944	    -11.05829846	      8.88568487	      0.15508446	     26.83593402	     -0.21722288	      0.00000000	      1.17166711	      1.45380875	      1.50398853	      8.35138872	      0.14575923	     26.47368284	     15.15141177	      0.00000000	     -0.12963222	      0.05641212	     -0.86464411	     -0.24074000	      0.07502812	     -0.91868436	     -0.21297278	      0.13716044	     -0.91868436	     -0.14815667	      0.13716044	     -0.75656359	     -0.12037648	      0.11503560	     -0.70252334	     -0.07407185	      0.08738238	     -0.64848308	     -0.92595001	      0.63814522	     -4.80889112	      0.00000000	      0.00000000	     17.78586466	      0.11357090	     -3.63094752	     11.60519094	     -9.53813236	     51.55123464	     39.05473026	     88.06405904	     12.49850420	     18.24482518	     26.39447401	     11.33511777	    197.35019678	      0.27828096	     41.48865817	     -3.37312681	    -23.80562410
      2.37500000	     -5.33109436	     -6.43844128	     98.97023424	      0.17252562	      0.96184306	      0.61694038	     -0.69598672	     -1.71125168	    -10.41264425	      8.73619649	      0.15247539	     27.02577934	     -0.80184595	      0.00000000	      1.17174734	      1.52818647	      1.49381884	      8.32136293	      0.14523518	     26.22042550	     15.10637662	      0.00000000	     -0.13493120	      0.03683281	     -0.75320665	     -0.25058073	      0.04898764	     -0.80028207	     -0.22167847	      0.08955530	     -0.80028207	     -0.15421287	      0.08955530	     -0.65905582	     -0.12529711	      0.07510948	     -0.61198040	     -0.07709969	      0.05705403	     -0.56490499	     -0.96380007	      0.41666016	     -4.18910943	      0.00000000	      0.00000000	     18.10999726	      0.24433073	     -4.03388921	     10.77570588	     -9.39678249	     49.13484233	     39.33703414	     87.85301339	     12.99677088	     19.24384311	     26.46208529	     11.48655592	    198.27115315	      0.27824705	     39.91502935	     -2.03068466	    -23.86540397
